<svg xmlns="http://www.w3.org/2000/svg" width="25.862" height="29.498" viewBox="0 0 25.862 29.498">
  <g id="Componente_179_7" data-name="Componente 179 – 7" transform="translate(0.002 0.001)">
    <path id="Caminho_2153" data-name="Caminho 2153" d="M137.717,421.268a4.391,4.391,0,0,1-4.386-4.386.878.878,0,1,1,1.755,0,2.632,2.632,0,1,0,5.264,0,.878.878,0,1,1,1.754,0A4.391,4.391,0,0,1,137.717,421.268Zm0,0" transform="translate(-124.792 -391.772)" fill="#b6b5c9"/>
    <g id="Grupo_3673" data-name="Grupo 3673" transform="translate(-0.002 -0.001)">
      <path id="Caminho_2154" data-name="Caminho 2154" d="M23.6,87.5H2.263A2.292,2.292,0,0,1,.788,83.473a8.792,8.792,0,0,0,3.09-6.709V73.127a9.049,9.049,0,1,1,18.1,0v3.637a8.791,8.791,0,0,0,3.073,6.694A2.29,2.29,0,0,1,23.6,87.5ZM12.927,65.942a7.155,7.155,0,0,0-7.11,7.185v3.637a10.753,10.753,0,0,1-3.762,8.19.327.327,0,0,0,.206.578H23.6a.328.328,0,0,0,.323-.327.323.323,0,0,0-.114-.246,10.756,10.756,0,0,1-3.773-8.2V73.127a7.155,7.155,0,0,0-7.106-7.185Zm0,0" transform="translate(0.002 -61.508)" fill="#b6b5c9"/>
      <path id="Caminho_2155" data-name="Caminho 2155" d="M198.21,4.228a.806.806,0,0,1-.878-.7V.7a.9.9,0,0,1,1.755,0V3.524a.806.806,0,0,1-.878.7Zm0,0" transform="translate(-185.279 0.001)" fill="#b6b5c9"/>
    </g>
  </g>
</svg>
