<svg xmlns="http://www.w3.org/2000/svg" width="25.578" height="22.694" viewBox="0 0 25.578 22.694">
  <path id="heart_1_" data-name="heart (1)" d="M11.889,20.894a1.4,1.4,0,0,1-.919-.341c-.961-.83-1.887-1.609-2.7-2.3l0,0a50.033,50.033,0,0,1-5.9-5.473A8.683,8.683,0,0,1,0,7.058,7.288,7.288,0,0,1,1.886,2.045,6.431,6.431,0,0,1,6.643,0a6.028,6.028,0,0,1,3.736,1.274,7.591,7.591,0,0,1,1.51,1.558A7.592,7.592,0,0,1,13.4,1.274,6.028,6.028,0,0,1,17.135,0a6.431,6.431,0,0,1,4.756,2.045,7.288,7.288,0,0,1,1.886,5.013,8.682,8.682,0,0,1-2.358,5.722,50.028,50.028,0,0,1-5.9,5.473c-.819.689-1.746,1.47-2.709,2.3a1.405,1.405,0,0,1-.919.341Z" transform="translate(0.9 0.9)" fill="none" stroke="#26374d" stroke-width="1.8" opacity="0.6"/>
</svg>
