<svg xmlns="http://www.w3.org/2000/svg" width="27.204" height="27.207" viewBox="0 0 27.204 27.207">
  <path id="home" d="M26.973,11.833l0,0L15.873.733a2.5,2.5,0,0,0-3.542,0L1.238,11.825l-.011.011A2.5,2.5,0,0,0,2.894,16.1c.026,0,.051,0,.077,0h.442v8.167a2.935,2.935,0,0,0,2.931,2.931h4.342a.8.8,0,0,0,.8-.8v-6.4a1.339,1.339,0,0,1,1.338-1.337h2.561a1.339,1.339,0,0,1,1.337,1.337v6.4a.8.8,0,0,0,.8.8h4.342a2.935,2.935,0,0,0,2.931-2.931V16.108h.41a2.505,2.505,0,0,0,1.773-4.275Zm-1.129,2.414a.9.9,0,0,1-.644.267H23.993a.8.8,0,0,0-.8.8v8.964a1.339,1.339,0,0,1-1.337,1.337H18.314V20.006a2.935,2.935,0,0,0-2.931-2.932H12.821A2.935,2.935,0,0,0,9.89,20.006v5.606H6.345a1.339,1.339,0,0,1-1.337-1.337V15.311a.8.8,0,0,0-.8-.8H3.024l-.037,0a.909.909,0,0,1-.627-1.553h0l11.1-11.1a.91.91,0,0,1,1.287,0l11.1,11.1.005,0a.913.913,0,0,1,0,1.286Zm0,0" transform="translate(-0.5 0.001)" fill="#26374d"/>
</svg>
