<svg id="subject" xmlns="http://www.w3.org/2000/svg" width="23.478" height="23.478" viewBox="0 0 23.478 23.478">
  <g id="Group_4427" data-name="Group 4427" transform="translate(5.516 6.282)">
    <g id="Group_4426" data-name="Group 4426">
      <path id="Path_3317" data-name="Path 3317" d="M121.138,137h-.294l-.55,2.751h1.395Z" transform="translate(-120.293 -137)" fill="#7d8187"/>
    </g>
  </g>
  <g id="Group_4429" data-name="Group 4429" transform="translate(17.488 11.785)">
    <g id="Group_4428" data-name="Group 4428">
      <path id="Path_3318" data-name="Path 3318" d="M381.374,257a7.188,7.188,0,0,0,1.129,1.993A7.26,7.26,0,0,0,383.678,257Z" transform="translate(-381.374 -257)" fill="#7d8187"/>
    </g>
  </g>
  <g id="Group_4431" data-name="Group 4431" transform="translate(11.128 4.173)">
    <g id="Group_4430" data-name="Group 4430">
      <path id="Path_3319" data-name="Path 3319" d="M252.95,91h-8.542l1.781,14.292a2.135,2.135,0,0,1-.51,1.566l-3.016,3.447H252.95a2.066,2.066,0,0,0,2.064-2.064V93.109A2.106,2.106,0,0,0,252.95,91Zm0,7.612h-.184a8.728,8.728,0,0,1-1.657,3.013c.505.462,1.046.841,1.583,1.265a.688.688,0,0,1-.86,1.073c-.584-.461-1.132-.846-1.679-1.349-.548.5-1.05.888-1.634,1.349a.688.688,0,0,1-.86-1.073c.537-.424,1.032-.8,1.537-1.265a8.681,8.681,0,0,1-1.611-3.013H247.4a.688.688,0,0,1,0-1.376h2.064v-.688a.688.688,0,1,1,1.376,0v.688h2.109a.688.688,0,0,1,0,1.376Z" transform="translate(-242.663 -91)" fill="#7d8187"/>
    </g>
  </g>
  <g id="Group_4433" data-name="Group 4433">
    <g id="Group_4432" data-name="Group 4432">
      <path id="Path_3320" data-name="Path 3320" d="M11.2,1.808A2.066,2.066,0,0,0,9.149,0H2.064A2.066,2.066,0,0,0,0,2.064V17.288a2.066,2.066,0,0,0,2.064,2.064H12.911c.2-.229.369-.373.376-.672C13.289,18.6,11.206,1.882,11.2,1.808ZM8.435,13.147a.688.688,0,0,1-.809-.539l-.44-2.2H5.241l-.44,2.2a.688.688,0,1,1-1.349-.27L4.828,5.459A.688.688,0,0,1,5.5,4.907H6.924a.688.688,0,0,1,.674.553l1.376,6.878A.688.688,0,0,1,8.435,13.147Z" fill="#7d8187"/>
    </g>
  </g>
  <g id="Group_4435" data-name="Group 4435" transform="translate(8.037 20.727)">
    <g id="Group_4434" data-name="Group 4434">
      <path id="Path_3321" data-name="Path 3321" d="M175.261,452l.118.944a2.08,2.08,0,0,0,1.189,1.6L178.878,452Z" transform="translate(-175.261 -452)" fill="#7d8187"/>
    </g>
  </g>
</svg>
