<svg xmlns="http://www.w3.org/2000/svg" width="22.872" height="22.872" viewBox="0 0 22.872 22.872">
  <path id="info" d="M11.436,0A11.436,11.436,0,1,0,22.872,11.436,11.449,11.449,0,0,0,11.436,0Zm.744,18.221c-.543.091-1.624.317-2.173.362a1.338,1.338,0,0,1-1.171-.609,1.429,1.429,0,0,1-.173-1.309l2.162-5.944H8.577a2.687,2.687,0,0,1,2.115-2.5,8.276,8.276,0,0,1,2.173-.36,1.724,1.724,0,0,1,1.171.609,1.429,1.429,0,0,1,.173,1.309l-2.162,5.944h2.247a2.53,2.53,0,0,1-2.114,2.5Zm.686-11.074a1.43,1.43,0,1,1,1.43-1.43,1.43,1.43,0,0,1-1.43,1.43Z" fill="#7d8187"/>
</svg>
