<svg id="mail" xmlns="http://www.w3.org/2000/svg" width="26.935" height="26.832" viewBox="0 0 26.935 26.832">
  <path id="Path_2866" data-name="Path 2866" d="M49.9.426a2.877,2.877,0,0,0-1.2.723L36.469,13.374a2.883,2.883,0,0,0-.723,1.2L47.54,12.22Zm0,0" transform="translate(-33.866 -0.403)" fill="#7d8187"/>
  <path id="Path_2867" data-name="Path 2867" d="M26.085,7.9,18.931.745A2.876,2.876,0,0,0,17.646,0L15.117,12.642a.789.789,0,0,1-.619.619L1.856,15.789A2.884,2.884,0,0,0,2.6,17.075l.628.628-3,3A.789.789,0,0,0,1.346,21.82l3-3,1.274,1.275L.23,25.485A.789.789,0,1,0,1.346,26.6L6.737,21.21l1.274,1.275-3,3A.789.789,0,1,0,6.127,26.6l3-3,.628.628a2.908,2.908,0,0,0,4.1,0L26.085,12a2.905,2.905,0,0,0,0-4.1Zm0,0" transform="translate(0.001 0)" fill="#7d8187"/>
</svg>
