<svg xmlns="http://www.w3.org/2000/svg" width="23.76" height="23.76" viewBox="0 0 23.76 23.76">
  <path id="message" d="M11.88,0a11.882,11.882,0,0,0-10.3,17.794L.045,22.547a.928.928,0,0,0,1.168,1.168l4.753-1.531A11.88,11.88,0,1,0,11.88,0Zm0,21.9a9.995,9.995,0,0,1-5.306-1.519.929.929,0,0,0-.777-.1L2.366,21.394l1.105-3.431a.929.929,0,0,0-.1-.777A10.024,10.024,0,1,1,11.88,21.9ZM13.04,11.88a1.16,1.16,0,1,1-1.16-1.16A1.16,1.16,0,0,1,13.04,11.88Zm4.641,0a1.16,1.16,0,1,1-1.16-1.16A1.16,1.16,0,0,1,17.681,11.88Zm-9.281,0a1.16,1.16,0,1,1-1.16-1.16A1.16,1.16,0,0,1,8.4,11.88Zm0,0" fill="#26374d" opacity="0.6"/>
</svg>
