<svg id="XMLID_162_" xmlns="http://www.w3.org/2000/svg" width="117.335" height="117.337" viewBox="0 0 117.335 117.337">
  <path id="XMLID_168_" d="M231.515,361.737a2.292,2.292,0,0,0-3.13-.839l-4.5,2.6v-5.2a2.292,2.292,0,0,0-4.583,0v5.2l-4.5-2.6a2.292,2.292,0,0,0-2.292,3.969l4.5,2.6-4.5,2.6a2.292,2.292,0,1,0,2.292,3.969l4.5-2.6v5.2a2.292,2.292,0,0,0,4.583,0v-5.2l4.5,2.6a2.292,2.292,0,0,0,2.292-3.969l-4.5-2.6,4.5-2.6A2.292,2.292,0,0,0,231.515,361.737Z" transform="translate(-162.925 -274.422)" fill="#3f3d56"/>
  <path id="XMLID_195_" d="M94.515,361.737a2.291,2.291,0,0,0-3.13-.839l-4.5,2.6v-5.2a2.292,2.292,0,0,0-4.583,0v5.2l-4.5-2.6a2.292,2.292,0,0,0-2.292,3.969l4.5,2.6-4.5,2.6a2.292,2.292,0,1,0,2.292,3.969l4.5-2.6v5.2a2.292,2.292,0,0,0,4.583,0v-5.2l4.5,2.6a2.292,2.292,0,0,0,2.292-3.969l-4.5-2.6,4.5-2.6A2.292,2.292,0,0,0,94.515,361.737Z" transform="translate(-57.321 -274.422)" fill="#3f3d56"/>
  <path id="XMLID_859_" d="M348.669,373.2a2.291,2.291,0,0,0,3.13.839l4.5-2.6v5.2a2.292,2.292,0,0,0,4.583,0v-5.2l4.5,2.6a2.292,2.292,0,0,0,2.292-3.969l-4.5-2.6,4.5-2.6a2.292,2.292,0,0,0-2.292-3.969l-4.5,2.6v-5.2a2.292,2.292,0,0,0-4.583,0v5.2l-4.5-2.6a2.292,2.292,0,0,0-2.292,3.969l4.5,2.6-4.5,2.6A2.291,2.291,0,0,0,348.669,373.2Z" transform="translate(-268.528 -274.422)" fill="#3f3d56"/>
  <path id="XMLID_860_" d="M105.88,300.008H69a2.292,2.292,0,1,0,0,4.583H105.88a6.883,6.883,0,0,1,6.875,6.875v25.667a6.883,6.883,0,0,1-6.875,6.875H11.462a6.883,6.883,0,0,1-6.875-6.875V311.466a6.883,6.883,0,0,1,6.875-6.875H48.373a2.292,2.292,0,1,0,0-4.583H11.462A11.471,11.471,0,0,0,0,311.466v25.667a11.471,11.471,0,0,0,11.458,11.458H105.88a11.471,11.471,0,0,0,11.458-11.458V311.466a11.471,11.471,0,0,0-11.458-11.458Z" transform="translate(-0.004 -231.255)" fill="#3f3d56"/>
  <path id="XMLID_861_" d="M248.3,164.658a2.292,2.292,0,0,0,2.292-2.292v-9.791a2.292,2.292,0,0,0-4.583,0v9.791A2.292,2.292,0,0,0,248.3,164.658Z" transform="translate(-189.628 -115.843)" fill="#3f3d56"/>
  <path id="XMLID_864_" d="M151.629,63.253h33a9.636,9.636,0,0,0,9.625-9.625v-24A9.636,9.636,0,0,0,184.63,20h-.458V16.042a16.042,16.042,0,0,0-32.084,0V20h-.458A9.636,9.636,0,0,0,142,29.628v24A9.636,9.636,0,0,0,151.629,63.253Zm5.042-47.211a11.458,11.458,0,1,1,22.917,0V20H156.671ZM146.587,29.628a5.047,5.047,0,0,1,5.042-5.042h33a5.047,5.047,0,0,1,5.042,5.042v24a5.047,5.047,0,0,1-5.042,5.042h-33a5.047,5.047,0,0,1-5.042-5.042Z" transform="translate(-109.462 0)" fill="#3f3d56"/>
  <path id="XMLID_1026_" d="M248.355,304.657a2.293,2.293,0,1,0-1.62-.671A2.309,2.309,0,0,0,248.355,304.657Z" transform="translate(-189.674 -231.306)" fill="#3f3d56"/>
</svg>
