<svg id="lock" xmlns="http://www.w3.org/2000/svg" width="19.326" height="24.596" viewBox="0 0 19.326 24.596">
  <g id="Group_4422" data-name="Group 4422" transform="translate(0)">
    <path id="Path_3312" data-name="Path 3312" d="M69.647,8.784h-.878V7.906a7.906,7.906,0,0,0-15.812,0v.878h-.878a.878.878,0,0,0-.878.878V23.718a.878.878,0,0,0,.878.878H69.647a.878.878,0,0,0,.878-.878V9.663A.878.878,0,0,0,69.647,8.784Zm-6.3,7.895a2.635,2.635,0,0,1-1.606,1.606V20.2a.878.878,0,1,1-1.757,0V18.285a2.635,2.635,0,1,1,3.363-1.606Zm3.664-7.895h-12.3V7.906a6.149,6.149,0,1,1,12.3,0Z" transform="translate(-51.2)" fill="#7d8187"/>
  </g>
</svg>
