<svg id="Component_491_1" data-name="Component 491 – 1" xmlns="http://www.w3.org/2000/svg" width="45.154" height="45.16" viewBox="0 0 45.154 45.16">
  <path id="Caminho_79" data-name="Caminho 79" d="M22.576,0A22.576,22.576,0,0,1,45.152,22.576a22.811,22.811,0,0,1-2.013,9.331A22.578,22.578,0,1,1,22.576,0Z" transform="translate(0.002)" fill="#ffc43b"/>
  <g id="send" transform="translate(12 12.701)">
    <g id="Group_4994" data-name="Group 4994" transform="translate(-0.001 0.299)">
      <path id="Path_3874" data-name="Path 3874" d="M19.855.518s0,0-.005-.006S19.84.507,19.835.5a.776.776,0,0,0-.149-.091c-.017-.008-.029-.023-.047-.03l-.006,0C19.614.372,19.6.359,19.581.352a.829.829,0,0,0-.218-.041C19.34.309,19.318.3,19.3.3A.836.836,0,0,0,19,.349L.552,7.059a.838.838,0,0,0-.2,1.471L5.93,12.515l.788,5.516a.839.839,0,0,0,1.5.384L10.2,15.777l5.191,4.452a.84.84,0,0,0,.547.2.855.855,0,0,0,.28-.048.841.841,0,0,0,.544-.64L20.142,1.307A.836.836,0,0,0,19.855.518ZM9.44,13.985l-.06.087L8.092,15.789l-.487-3.414,7.278-6.308Z" transform="translate(0.001 -0.299)" fill="#fff"/>
    </g>
  </g>
</svg>
