<svg xmlns="http://www.w3.org/2000/svg" width="26.93" height="26.93" viewBox="0 0 26.93 26.93">
  <g id="settings" transform="translate(0 0)">
    <path id="Path_2843" data-name="Path 2843" d="M140.046,133.609a6.437,6.437,0,1,0,6.437,6.437A6.445,6.445,0,0,0,140.046,133.609Zm0,11.266a4.828,4.828,0,1,1,4.828-4.828A4.834,4.834,0,0,1,140.046,144.875Zm0,0" transform="translate(-126.582 -126.581)" fill="#b6b5c9"/>
    <path id="Path_2844" data-name="Path 2844" d="M26.3,10.4l-2.07-.45a11.264,11.264,0,0,0-.666-1.606L24.706,6.56a.8.8,0,0,0-.108-1L21.374,2.331a.8.8,0,0,0-1-.108L18.587,3.369A11.264,11.264,0,0,0,16.981,2.7l-.45-2.07A.8.8,0,0,0,15.745,0h-4.56A.8.8,0,0,0,10.4.633L9.949,2.7a11.264,11.264,0,0,0-1.606.666L6.56,2.224a.8.8,0,0,0-1,.108L2.331,5.556a.8.8,0,0,0-.108,1L3.369,8.342A11.264,11.264,0,0,0,2.7,9.949l-2.07.45A.8.8,0,0,0,0,11.185v4.56a.8.8,0,0,0,.634.786l2.07.45a11.264,11.264,0,0,0,.666,1.606L2.224,20.37a.8.8,0,0,0,.108,1L5.556,24.6a.8.8,0,0,0,1,.108L8.342,23.56a11.265,11.265,0,0,0,1.606.666l.45,2.07a.8.8,0,0,0,.786.634h4.56a.8.8,0,0,0,.786-.634l.45-2.07a11.264,11.264,0,0,0,1.606-.666l1.782,1.146a.8.8,0,0,0,1-.108L24.6,21.374a.8.8,0,0,0,.108-1L23.56,18.587a11.264,11.264,0,0,0,.666-1.606l2.07-.45a.8.8,0,0,0,.634-.786v-4.56A.8.8,0,0,0,26.3,10.4Zm-.976,4.7-1.9.413a.805.805,0,0,0-.6.57,9.655,9.655,0,0,1-.891,2.15.8.8,0,0,0,.024.831L23,20.694,20.695,23,19.06,21.951a.8.8,0,0,0-.83-.024,9.66,9.66,0,0,1-2.15.891.805.805,0,0,0-.57.6l-.413,1.9H11.834l-.413-1.9a.805.805,0,0,0-.57-.6,9.655,9.655,0,0,1-2.15-.891.8.8,0,0,0-.831.024L6.235,23,3.928,20.694,4.979,19.06A.8.8,0,0,0,5,18.229a9.665,9.665,0,0,1-.892-2.15.8.8,0,0,0-.6-.57l-1.9-.413V11.833l1.9-.413a.805.805,0,0,0,.6-.57A9.655,9.655,0,0,1,5,8.7a.8.8,0,0,0-.024-.831L3.928,6.235,6.235,3.928,7.87,4.979A.8.8,0,0,0,8.7,5a9.661,9.661,0,0,1,2.15-.891.805.805,0,0,0,.57-.6l.413-1.9H15.1l.413,1.9a.805.805,0,0,0,.57.6A9.655,9.655,0,0,1,18.229,5a.8.8,0,0,0,.831-.024l1.635-1.051L23,6.235,21.951,7.87a.8.8,0,0,0-.024.831,9.655,9.655,0,0,1,.892,2.15.8.8,0,0,0,.6.57l1.9.413Zm0,0" transform="translate(0 0)" fill="#b6b5c9"/>
  </g>
</svg>
