<svg xmlns="http://www.w3.org/2000/svg" width="23.354" height="25.232" viewBox="0 0 23.354 25.232">
  <path id="share_1_" data-name="share (1)" d="M27.05,15.711a4.752,4.752,0,0,0-3.662,1.723L17.7,14.207a4.75,4.75,0,0,0,0-3.18L23.388,7.8a4.755,4.755,0,1,0-.824-1.448L16.879,9.579a4.76,4.76,0,1,0,0,6.075l5.685,3.228a4.76,4.76,0,1,0,4.486-3.171Zm0-14.045A3.1,3.1,0,1,1,23.956,4.76,3.1,3.1,0,0,1,27.05,1.666ZM13.217,15.711a3.094,3.094,0,1,1,3.094-3.094A3.1,3.1,0,0,1,13.217,15.711ZM27.05,23.567a3.095,3.095,0,1,1,3.094-3.094A3.1,3.1,0,0,1,27.05,23.567Z" transform="translate(-8.456)" fill="#26374d" opacity="0.6"/>
</svg>
