<svg id="user" xmlns="http://www.w3.org/2000/svg" width="20.002" height="23.974" viewBox="0 0 20.002 23.974">
  <path id="Path_1860" data-name="Path 1860" d="M92.806,11.549a5.587,5.587,0,0,0,4.083-1.692,5.588,5.588,0,0,0,1.692-4.083,5.588,5.588,0,0,0-1.692-4.083,5.773,5.773,0,0,0-8.165,0,5.587,5.587,0,0,0-1.692,4.083,5.588,5.588,0,0,0,1.692,4.083A5.589,5.589,0,0,0,92.806,11.549Z" transform="translate(-82.956 0)" fill="#7d8187"/>
  <path id="Path_1861" data-name="Path 1861" d="M19.953,254.171a14.26,14.26,0,0,0-.194-1.515,11.937,11.937,0,0,0-.373-1.523,7.525,7.525,0,0,0-.626-1.421,5.356,5.356,0,0,0-.944-1.23,4.163,4.163,0,0,0-1.356-.852,4.687,4.687,0,0,0-1.731-.313,1.757,1.757,0,0,0-.939.4c-.281.183-.61.4-.978.63a5.6,5.6,0,0,1-1.265.557,4.912,4.912,0,0,1-3.094,0,5.588,5.588,0,0,1-1.264-.557c-.364-.233-.693-.445-.979-.631a1.756,1.756,0,0,0-.938-.4,4.681,4.681,0,0,0-1.731.314,4.16,4.16,0,0,0-1.356.852,5.357,5.357,0,0,0-.944,1.23,7.537,7.537,0,0,0-.626,1.421,11.962,11.962,0,0,0-.372,1.523,14.166,14.166,0,0,0-.194,1.515c-.032.458-.048.934-.048,1.416A3.981,3.981,0,0,0,1.182,258.6a4.256,4.256,0,0,0,3.047,1.111H15.773a4.256,4.256,0,0,0,3.047-1.111A3.98,3.98,0,0,0,20,255.587c0-.483-.016-.96-.048-1.416Z" transform="translate(0 -235.736)" fill="#7d8187"/>
</svg>
