<svg xmlns="http://www.w3.org/2000/svg" width="112" height="112" viewBox="0 0 112 112">
  <g id="Group_8172" data-name="Group 8172" transform="translate(-131 -228)">
    <circle id="woman-s-face-38289" cx="56" cy="56" r="56" transform="translate(131 228)" fill="#42464d" opacity="0.1"/>
    <g id="Group_3002" data-name="Group 3002" transform="translate(161 258)">
      <path id="Path_2146" data-name="Path 2146" d="M44.512,33.711A25.974,25.974,0,0,0,34.6,27.5a15.074,15.074,0,1,0-17.058,0A26.116,26.116,0,0,0,0,52.149H4.074a22,22,0,1,1,44,0h4.074A25.9,25.9,0,0,0,44.512,33.711ZM26.074,26.074a11,11,0,1,1,11-11A11.013,11.013,0,0,1,26.074,26.074Z" transform="translate(0)" fill="#3f3d56"/>
    </g>
  </g>
</svg>
