<svg xmlns="http://www.w3.org/2000/svg" xmlns:xlink="http://www.w3.org/1999/xlink" width="251" height="259.797" viewBox="0 0 251 259.797">
  <defs>
    <filter id="woman-s-face-38289" x="0" y="60.225" width="149.306" height="149.306" filterUnits="userSpaceOnUse">
      <feOffset input="SourceAlpha"/>
      <feGaussianBlur stdDeviation="3" result="blur"/>
      <feFlood flood-opacity="0.161"/>
      <feComposite operator="in" in2="blur"/>
      <feComposite in="SourceGraphic"/>
    </filter>
    <filter id="woman-s-face-38289-2" x="97.454" y="110.491" width="149.306" height="149.306" filterUnits="userSpaceOnUse">
      <feOffset input="SourceAlpha"/>
      <feGaussianBlur stdDeviation="3" result="blur-2"/>
      <feFlood flood-opacity="0.161"/>
      <feComposite operator="in" in2="blur-2"/>
      <feComposite in="SourceGraphic"/>
    </filter>
  </defs>
  <g id="Group_4968" data-name="Group 4968" transform="translate(-51 -192)">
    <path id="Path_2723" data-name="Path 2723" d="M826.336,167.771a48.463,48.463,0,1,1,17.3,23.074,15.676,15.676,0,1,1-17.3-23.074Z" transform="translate(-618.617 103.322)" fill="#bccbff"/>
    <path id="Path_2724" data-name="Path 2724" d="M814.768,171.108a16.824,16.824,0,0,1-.295-32.515,51.076,51.076,0,1,1,18.786,25.061A16.877,16.877,0,0,1,814.768,171.108Zm60.557-97.9a50.272,50.272,0,0,0-59.847,65.548l.166.467-.481.118a15.929,15.929,0,1,0,17.573,23.446l.248-.43.4.291A50.271,50.271,0,1,0,875.325,73.2Z" transform="translate(-611.843 121.117)" fill="#cfcce0"/>
    <g transform="matrix(1, 0, 0, 1, 51, 192)" filter="url(#woman-s-face-38289)">
      <path id="woman-s-face-38289-3" data-name="woman-s-face-38289" d="M65.653,0A65.653,65.653,0,1,1,0,65.653,65.653,65.653,0,0,1,65.653,0Z" transform="translate(9 69.22)" fill="#fff"/>
    </g>
    <path id="Path_2744" data-name="Path 2744" d="M374.841,168.421a56.27,56.27,0,0,1-4.1,21.149l-.018.043v0a56.176,56.176,0,0,1-7.143,12.626q-.844,1.127-1.741,2.207c-.219.264-.441.526-.663.785q-1.715,1.991-3.609,3.814-.441.426-.891.841l-.21.194a56.385,56.385,0,0,1-4.615,3.789q-1.615,1.194-3.315,2.269-.373.238-.751.467-.656.4-1.324.783-.871.5-1.764.97c-.24.129-.482.252-.724.376-.354.182-.709.357-1.068.529-.062.03-.124.06-.185.088-.234.114-.471.224-.708.334a55.9,55.9,0,0,1-9.592,3.4l-.053.013c-.215.055-.432.108-.649.16-.162.04-.325.078-.489.115a.423.423,0,0,1-.062.015c-.336.078-.671.154-1.01.222-.19.04-.381.08-.571.119-.115.025-.232.047-.347.068l-.434.083c-.08.017-.16.03-.242.043l-.549.1c-.31.053-.624.105-.936.152-.227.035-.452.068-.679.1-.267.038-.534.073-.8.107-.073.012-.147.02-.22.028l-.285.035c-.192.023-.384.045-.578.065-.1.012-.2.022-.3.032q-.285.03-.571.055c-.245.023-.491.043-.738.063-.3.023-.6.045-.9.063-.194.012-.387.023-.583.033-.5.027-.995.045-1.5.058-.249.007-.5.012-.75.015h-.005c-.249,0-.5.005-.749.005a56.616,56.616,0,0,1-7.587-.507q-2.767-.371-5.445-1c-.072-.017-.144-.033-.214-.052-.18-.042-.359-.087-.538-.132-.159-.04-.315-.082-.474-.124a55.98,55.98,0,0,1-11.785-4.539l-.057-.03c-.108-.057-.215-.112-.322-.17q-.353-.185-.7-.377-1.991-1.094-3.879-2.34-.486-.318-.961-.646l-.3-.21-.314-.22q-.413-.293-.821-.593-1.69-1.242-3.28-2.606a56.712,56.712,0,0,1-9.875-10.992q-1.465-2.133-2.734-4.4a56.425,56.425,0,1,1,105.712-27.474Z" transform="translate(-192.767 158.457)" fill="#ffc43b"/>
    <path id="Path_2745" data-name="Path 2745" d="M654.35,390.762c.18-.042.358-.087.536-.131.158-.04.314-.082.472-.123.008-.331.02-.7.032-1.09.1-3.088.329-8.059.875-14.049q.045-.482.09-.97c.195-2.03.423-4.164.7-6.377.008-.073.018-.145.027-.218.221-1.794.473-3.635.755-5.512q.3-1.969.642-3.981l.05-.281c.067-.388.135-.774.2-1.163.195-1.083.4-2.173.62-3.263.767-3.833,1.68-7.69,2.77-11.442a91.668,91.668,0,0,1,4.081-11.415,56.382,56.382,0,0,1,4.449-8.29l.075-.113a31.815,31.815,0,0,1,7.543-8.184l-.592-.809a32.674,32.674,0,0,0-7.527,8l-.033.048a54.489,54.489,0,0,0-4.479,8.029,87.756,87.756,0,0,0-4.272,11.542q-1.637,5.5-2.937,11.908-.457,2.258-.872,4.629l-.14.81s0,.008,0,.012c-.072.416-.14.832-.21,1.253q-.259,1.59-.489,3.155-.354,2.411-.641,4.738-.095.769-.183,1.526-.125,1.068-.236,2.108-.157,1.447-.288,2.833l-.025.255c-.013.146-.027.293-.04.438C654.628,381.92,654.416,387.805,654.35,390.762Z" transform="translate(-519.567 -9.022)" opacity="0.2"/>
    <path id="Path_2746" data-name="Path 2746" d="M731.01,608.019l.057-.03c.343-.178.682-.359,1.021-.546.112-1.328.261-2.787.458-4.321.042-.316.083-.637.13-.96.023-.173.048-.348.073-.524.2-1.351.429-2.745.709-4.146,1.136-5.717,3.023-11.56,6.156-15.167.168-.195.339-.381.517-.562a11.252,11.252,0,0,1,1.433-1.256l-.592-.807a12.817,12.817,0,0,0-1.963,1.8q-.312.347-.609.722c-2.883,3.629-4.684,9-5.8,14.32-.293,1.387-.539,2.773-.749,4.123q-.08.529-.153,1.048C731.368,603.994,731.153,606.154,731.01,608.019Z" transform="translate(-583.462 -231.058)" opacity="0.2"/>
    <ellipse id="Ellipse_223" data-name="Ellipse 223" cx="5.006" cy="5.006" rx="5.006" ry="5.006" transform="translate(159.388 294.818)" opacity="0.2"/>
    <ellipse id="Ellipse_224" data-name="Ellipse 224" cx="5.006" cy="5.006" rx="5.006" ry="5.006" transform="translate(157.776 338.067)" opacity="0.2"/>
    <path id="Path_2747" data-name="Path 2747" d="M678.8,287.032a22.236,22.236,0,0,1-1.282,11.412,20.265,20.265,0,0,1-3.844-21.688A22.238,22.238,0,0,1,678.8,287.032Z" transform="translate(-534.408 21.225)" opacity="0.2"/>
    <path id="Path_2748" data-name="Path 2748" d="M754.9,387.7a22.347,22.347,0,0,1-11.453.748,20.389,20.389,0,0,1,20.687-7.564A22.346,22.346,0,0,1,754.9,387.7Z" transform="translate(-593.741 -65.177)" opacity="0.2"/>
    <path id="Path_2749" data-name="Path 2749" d="M777.855,627.784a15.586,15.586,0,0,1-8.033.509,14.2,14.2,0,0,1,14.5-5.3A15.586,15.586,0,0,1,777.855,627.784Z" transform="translate(-615.729 -266.966)" opacity="0.2"/>
    <path id="Path_2750" data-name="Path 2750" d="M701.96,648.27l.2.1C702.143,648.591,702.095,648.724,701.96,648.27Z" transform="translate(-559.287 -288.295)" fill="#2f2e41"/>
    <path id="Path_2751" data-name="Path 2751" d="M703.245,646.758c0,.023,0,.048.007.071l-.072-.037c0-.022,0-.045.007-.068C703.2,646.434,703.183,646.089,703.245,646.758Z" transform="translate(-560.303 -286.714)" fill="#2f2e41"/>
    <ellipse id="Ellipse_225" data-name="Ellipse 225" cx="27.321" cy="27.32" rx="27.321" ry="27.32" transform="translate(93.926 297.32)" fill="#2f2e41"/>
    <ellipse id="Ellipse_226" data-name="Ellipse 226" cx="16.545" cy="16.545" rx="16.545" ry="16.545" transform="translate(106.968 317.807)" fill="#d0cde1"/>
    <path id="Path_2752" data-name="Path 2752" d="M468.841,574.78l-.02.005-3.848.923-8.013,1.923-1.093.263-12.185,2.923-1.035.249-29.563,7.094a55.5,55.5,0,0,1-5.848-2.634l-.057-.03c-.108-.057-.215-.111-.321-.17q-.352-.185-.7-.376-1.984-1.091-3.867-2.333-.484-.317-.958-.644l-.3-.21-.313-.22q-.412-.292-.819-.591c2.872-5.219,9.71-8.688,16.548-10.586,5.161-1.434,6.3-6.148,6.2-10.342a24.443,24.443,0,0,0-.243-2.858,27.863,27.863,0,0,0-.992-4.449l16.546.552,1.707,3.933a8.915,8.915,0,0,0-.045,1.3c.13,3.226,2.121,5.312,4.579,6.658.319.175.647.338.98.489a25.926,25.926,0,0,0,8.773,1.957,16.893,16.893,0,0,1,4.341.082q.524.08,1.018.191a14.666,14.666,0,0,1,5.342,2.391,15.228,15.228,0,0,1,1.732,1.436A13.752,13.752,0,0,1,468.841,574.78Z" transform="translate(-307.529 -208.567)" fill="#d0cde1"/>
    <path id="Path_2753" data-name="Path 2753" d="M755.956,681.964l-.21.193a56.207,56.207,0,0,1-4.6,3.777q-1.61,1.191-3.3,2.261-.372.237-.749.466-.654.4-1.319.78-.869.5-1.759.967c-.24.128-.481.251-.722.374-.353.181-.707.356-1.065.527-.062.03-.123.06-.185.088l-.7-.584,8.266-10.1,1.662-2.031a4.622,4.622,0,0,1,2.186,1.108,21.788,21.788,0,0,1,2.379,2.053C755.873,681.883,755.915,681.923,755.956,681.964Z" transform="translate(-592.055 -313.571)" fill="#d0cde1"/>
    <path id="Path_2754" data-name="Path 2754" d="M506.069,670.806a1.9,1.9,0,0,1-.093.306,56.229,56.229,0,0,1-4.6,3.777,19.622,19.622,0,0,1-4.291,1.02s.125.626.238,1.707q-.654.4-1.319.78-.869.5-1.759.967c-.24.128-.481.251-.722.374-.353.181-.707.356-1.065.527-.062.03-.123.06-.185.088-.233.113-.469.223-.705.333a55.72,55.72,0,0,1-9.56,3.392l-.053.013c-.215.055-.431.108-.647.16-.161.04-.324.078-.487.115a.411.411,0,0,1-.062.015c-.334.078-.669.153-1.007.221-.19.04-.379.08-.569.118-.115.025-.231.047-.346.068l-.433.083c-.08.017-.16.03-.241.043l-.547.1c-.309.053-.622.1-.933.151-.226.035-.451.068-.677.1-.266.038-.532.073-.8.106-.073.012-.146.02-.22.028l-.284.035c-.191.023-.383.045-.576.065-.1.012-.2.022-.3.031q-.285.03-.569.055c-.245.023-.489.043-.735.063-.3.023-.6.045-.9.063-.193.012-.386.023-.581.033-.5.027-.992.045-1.491.058-.248.007-.5.012-.747.015h0c-.248,0-.5,0-.747,0a56.408,56.408,0,0,1-7.562-.506q-2.758-.369-5.427-1c-.072-.017-.143-.033-.213-.052-.18-.042-.358-.086-.536-.131-.158-.04-.314-.082-.473-.123a55.792,55.792,0,0,1-11.746-4.524l-.057-.03c-.108-.057-.215-.111-.321-.17,9.132-2.128,23.564-5.484,36.087-8.359l1.046-.24c4.625-1.061,8.958-2.05,12.623-2.877l1.115-.249c3.938-.885,7-1.557,8.655-1.893a13.527,13.527,0,0,1,1.354-.238l3.462,5.366Z" transform="translate(-342.356 -302.524)" fill="#2f2e41"/>
    <ellipse id="Ellipse_227" data-name="Ellipse 227" cx="8.138" cy="8.138" rx="8.138" ry="8.138" transform="translate(88.028 296.669)" fill="#2f2e41"/>
    <ellipse id="Ellipse_228" data-name="Ellipse 228" cx="8.138" cy="8.138" rx="8.138" ry="8.138" transform="translate(138.211 294.334)" fill="#2f2e41"/>
    <path id="Path_2755" data-name="Path 2755" d="M662.708,242.137a8.138,8.138,0,0,1,7.265-8.09,8.138,8.138,0,1,0,0,16.18A8.138,8.138,0,0,1,662.708,242.137Z" transform="translate(-525.105 56.834)" fill="#2f2e41"/>
    <path id="Path_2756" data-name="Path 2756" d="M350.861,302.984a8.138,8.138,0,0,1-.472-10.864,8.138,8.138,0,1,0,11.324,11.557A8.138,8.138,0,0,1,350.861,302.984Z" transform="translate(-263.86 8.418)" fill="#2f2e41"/>
    <path id="Path_2757" data-name="Path 2757" d="M486.308,359.777c-9.631,0-17.439,4.554-17.439,10.173,0,2.514,1.569,4.811,4.16,6.586l3.357-2.432-.913,3.811c.379.176.766.346,1.169.5l5.015-5.851v7.188a29.276,29.276,0,0,0,4.65.369c9.631,0,17.439-4.554,17.439-10.173S495.939,359.777,486.308,359.777Z" transform="translate(-365.054 -47.93)" fill="#2f2e41"/>
    <path id="Path_2758" data-name="Path 2758" d="M674.631,303.876s-1.264,5.813,6.634,8.138Z" transform="translate(-536.444 -1.382)" fill="#2f2e41"/>
    <path id="Path_2759" data-name="Path 2759" d="M439.744,310.235s2.906,6.5-5.813,9.405Z" transform="translate(-335.993 -6.678)" fill="#2f2e41"/>
    <ellipse id="Ellipse_229" data-name="Ellipse 229" cx="1.379" cy="3.309" rx="1.379" ry="3.309" transform="translate(104.971 334.85) rotate(-15.639)" fill="#d0cde1"/>
    <ellipse id="Ellipse_230" data-name="Ellipse 230" cx="3.309" cy="1.379" rx="3.309" ry="1.379" transform="translate(138.815 338.115) rotate(-86.476)" fill="#d0cde1"/>
    <g transform="matrix(1, 0, 0, 1, 51, 192)" filter="url(#woman-s-face-38289-2)">
      <path id="woman-s-face-38289-4" data-name="woman-s-face-38289" d="M65.653,0A65.653,65.653,0,1,1,0,65.653,65.653,65.653,0,0,1,65.653,0Z" transform="translate(106.45 119.49)" fill="#fff"/>
    </g>
    <path id="Path_2733" data-name="Path 2733" d="M374.841,168.421a56.229,56.229,0,0,1-4.544,22.218l-.187.431a56.514,56.514,0,0,1-61.48,32.926q-.508-.09-1.015-.187a55.917,55.917,0,0,1-10.206-3.01q-.8-.323-1.6-.669c-.361-.157-.721-.319-1.078-.486a56.426,56.426,0,1,1,80.106-51.222Z" transform="translate(-95.314 208.722)" fill="#3fa770"/>
    <path id="Path_2734" data-name="Path 2734" d="M421.837,404.231q-.508-.09-1.015-.187a231.99,231.99,0,0,0-3.555-33.266,123.42,123.42,0,0,0-6.084-22.129A68.88,68.88,0,0,0,408,341.664c-2.744-5.183-6.073-9.546-10.109-12.5l.594-.811a34.909,34.909,0,0,1,9.051,10.363q1.2,2,2.314,4.263,1.189,2.424,2.269,5.146.689,1.733,1.33,3.586a130.147,130.147,0,0,1,4.751,18.358q.433,2.278.825,4.669A236.735,236.735,0,0,1,421.837,404.231Z" transform="translate(-208.52 28.486)" opacity="0.2"/>
    <path id="Path_2735" data-name="Path 2735" d="M412.078,622.254c-.361-.157-.721-.319-1.078-.486a81.949,81.949,0,0,0-2.162-12.952,42.492,42.492,0,0,0-1.971-5.876,17.632,17.632,0,0,0-5.307-7.431l.594-.81a18.446,18.446,0,0,1,5.549,7.6,52.145,52.145,0,0,1,3.323,11.713C411.545,616.968,411.873,619.82,412.078,622.254Z" transform="translate(-211.578 -193.404)" opacity="0.2"/>
    <ellipse id="Ellipse_220" data-name="Ellipse 220" cx="5.023" cy="5.023" rx="5.023" ry="5.023" transform="translate(178.734 347.579)" opacity="0.2"/>
    <ellipse id="Ellipse_221" data-name="Ellipse 221" cx="5.023" cy="5.023" rx="5.023" ry="5.023" transform="translate(180.351 390.814)" opacity="0.2"/>
    <path id="Path_2736" data-name="Path 2736" d="M482.332,302.066a22.31,22.31,0,0,0,1.286,11.45,20.332,20.332,0,0,0,3.857-21.76A22.311,22.311,0,0,0,482.332,302.066Z" transform="translate(-278.637 58.973)" opacity="0.2"/>
    <path id="Path_2737" data-name="Path 2737" d="M337.481,402.721a22.421,22.421,0,0,0,11.491.751,20.456,20.456,0,0,0-20.755-7.589A22.42,22.42,0,0,0,337.481,402.721Z" transform="translate(-150.477 -27.42)" opacity="0.2"/>
    <path id="Path_2738" data-name="Path 2738" d="M345.516,642.8a15.637,15.637,0,0,0,8.06.511,14.25,14.25,0,0,0-14.548-5.32A15.635,15.635,0,0,0,345.516,642.8Z" transform="translate(-159.484 -229.213)" opacity="0.2"/>
    <ellipse id="Ellipse_222" data-name="Ellipse 222" cx="21.996" cy="21.996" rx="21.996" ry="21.996" transform="translate(200.995 345.645)" fill="#d0cde1"/>
    <path id="Path_2739" data-name="Path 2739" d="M547.833,459.66s2.749,13.06,2.749,14.435,13.06,7.561,13.06,7.561l11.685-2.062,4.124-12.373s-6.874-10.31-6.874-14.435Z" transform="translate(-333.434 -75.179)" fill="#d0cde1"/>
    <path id="Path_2740" data-name="Path 2740" d="M474.632,528.267l-.187.431a56.514,56.514,0,0,1-61.48,32.926q-.508-.09-1.015-.187a55.9,55.9,0,0,1-10.206-3.01q-.8-.323-1.6-.669c-.36-.157-.721-.319-1.078-.486a56.362,56.362,0,0,1-9.223-5.388l-2.607-7.563,1.466-1.118,3.015-2.3,3.217-2.455.836-.639,12.621-9.635.931-.711,6.56-5.008,0,0s7.094,11.56,17.405,8.122a14.218,14.218,0,0,0,10.086-13.292Z" transform="translate(-199.648 -128.907)" fill="#2f2e41"/>
    <path id="Path_2741" data-name="Path 2741" d="M459.218,226.217s6.984-15.131,20.369-11.639,20.951,8.729,21.533,13.967a74.742,74.742,0,0,1-.291,13.094s-1.455-10.766-10.766-8.438-23.86.582-23.86.582l-2.328,20.951s-2.619-3.783-5.529-1.455S449.906,230.873,459.218,226.217Z" transform="translate(-255.302 123.703)" fill="#2f2e41"/>
    <path id="Path_2742" data-name="Path 2742" d="M387.815,693.377q-.8-.323-1.6-.669c-.361-.157-.721-.319-1.078-.486a56.566,56.566,0,0,1-14.621-9.8,19.779,19.779,0,0,1,2.791-3.153h10.311l1.546,5.2Z" transform="translate(-185.719 -263.856)" fill="#2f2e41"/>
    <path id="Path_2743" data-name="Path 2743" d="M853.529,576.32l8.845,1.563a56.41,56.41,0,0,1-9.475,14.784Z" transform="translate(-587.578 -178.092)" fill="#2f2e41"/>
    <path id="star" d="M21.637,2.232l4.451,9.019a2.124,2.124,0,0,0,1.6,1.162l9.953,1.446a2.125,2.125,0,0,1,1.178,3.624l-7.2,7.02a2.125,2.125,0,0,0-.611,1.881l1.7,9.913a2.126,2.126,0,0,1-3.084,2.241l-8.9-4.68a2.128,2.128,0,0,0-1.978,0l-8.9,4.68A2.125,2.125,0,0,1,6.758,36.3l1.7-9.913A2.125,2.125,0,0,0,7.847,24.5l-7.2-7.02a2.125,2.125,0,0,1,1.178-3.624l9.953-1.446a2.124,2.124,0,0,0,1.6-1.162l4.451-9.019A2.124,2.124,0,0,1,21.637,2.232Z" transform="translate(233.874 234.012)" fill="#fff"/>
  </g>
</svg>
